HIERARCHY
ROOT hip
{
  OFFSET 0 0 0
  CHANNELS 6 Xposition Yposition Zposition Zrotation Yrotation Xrotation
  JOINT abdomen
  {
    OFFSET 0 20.6881 -0.73152
    CHANNELS 3 Zrotation Xrotation Yrotation
    JOINT chest
    {
      OFFSET 0 11.7043 -0.48768
      CHANNELS 3 Zrotation Xrotation Yrotation
      JOINT neck
      {
        OFFSET 0 22.1894 -2.19456
        CHANNELS 3 Zrotation Xrotation Yrotation
        JOINT head
        {
          OFFSET -0.24384 7.07133 1.2192
          CHANNELS 3 Zrotation Xrotation Yrotation
          JOINT leftEye
          {
            OFFSET 4.14528 8.04674 8.04672
            CHANNELS 3 Zrotation Xrotation Yrotation
            End Site
            {
              OFFSET 1 0 0
            }
          }
          JOINT rightEye
          {
            OFFSET -3.6576 8.04674 8.04672
            CHANNELS 3 Zrotation Xrotation Yrotation
            End Site
            {
              OFFSET 1 0 0
            }
          }
        }
      }
      JOINT rCollar
      {
        OFFSET -2.68224 19.2634 -4.8768
        CHANNELS 3 Zrotation Xrotation Yrotation
        JOINT rShldr
        {
          OFFSET -8.77824 -1.95073 1.46304
          CHANNELS 3 Zrotation Xrotation Yrotation
          JOINT rForeArm
          {
            OFFSET -28.1742 -1.7115 0.48768
            CHANNELS 3 Zrotation Xrotation Yrotation
            JOINT rHand
            {
              OFFSET -22.5879 0.773209 7.07136
              CHANNELS 3 Zrotation Xrotation Yrotation
              JOINT rThumb1
              {
                OFFSET -1.2192 -0.487915 3.41376
                CHANNELS 3 Zrotation Xrotation Yrotation
                JOINT rThumb2
                {
                  OFFSET -3.37035 -0.52449 3.41376
                  CHANNELS 3 Zrotation Xrotation Yrotation
                  End Site
                  {
                    OFFSET -1.78271 -1.18214 1.43049
                  }
                }
              }
              JOINT rIndex1
              {
                OFFSET -7.75947 0.938293 5.60832
                CHANNELS 3 Zrotation Xrotation Yrotation
                JOINT rIndex2
                {
                  OFFSET -2.54057 -0.884171 1.56538
                  CHANNELS 3 Zrotation Xrotation Yrotation
                  End Site
                  {
                    OFFSET -1.62519 -0.234802 1.16502
                  }
                }
              }
              JOINT rMid1
              {
                OFFSET -8.24714 1.18213 3.41376
                CHANNELS 3 Zrotation Xrotation Yrotation
                JOINT rMid2
                {
                  OFFSET -3.10165 -0.590103 1.0647
                  CHANNELS 3 Zrotation Xrotation Yrotation
                  End Site
                  {
                    OFFSET -2.48547 -0.328903 0.83742
                  }
                }
              }
              JOINT rRing1
              {
                OFFSET -8.82822 0.546677 1.51678
                CHANNELS 3 Zrotation Xrotation Yrotation
                JOINT rRing2
                {
                  OFFSET -2.60934 -0.819778 -0.0198488
                  CHANNELS 3 Zrotation Xrotation Yrotation
                  End Site
                  {
                    OFFSET -2.33842 -0.294052 0.168128
                  }
                }
              }
              JOINT rPinky1
              {
                OFFSET -8.27202 -0.0477905 -0.4584
                CHANNELS 3 Zrotation Xrotation Yrotation
                JOINT rPinky2
                {
                  OFFSET -1.82734 -0.647385 -0.700984
                  CHANNELS 3 Zrotation Xrotation Yrotation
                  End Site
                  {
                    OFFSET -1.69225 -0.51767 -0.607171
                  }
                }
              }
            }
          }
        }
      }
      JOINT lCollar
      {
        OFFSET 2.68224 19.2634 -4.8768
        CHANNELS 3 Zrotation Xrotation Yrotation
        JOINT lShldr
        {
          OFFSET 8.77824 -1.95073 1.46304
          CHANNELS 3 Zrotation Xrotation Yrotation
          JOINT lForeArm
          {
            OFFSET 28.1742 -1.7115 0.48768
            CHANNELS 3 Zrotation Xrotation Yrotation
            JOINT lHand
            {
              OFFSET 22.5879 0.773209 7.07136
              CHANNELS 3 Zrotation Xrotation Yrotation
              JOINT lThumb1
              {
                OFFSET 1.2192 -0.487915 3.41376
                CHANNELS 3 Zrotation Xrotation Yrotation
                JOINT lThumb2
                {
                  OFFSET 3.37035 -0.52449 3.41376
                  CHANNELS 3 Zrotation Xrotation Yrotation
                  End Site
                  {
                    OFFSET 1.78271 -1.18214 1.43049
                  }
                }
              }
              JOINT lIndex1
              {
                OFFSET 7.75947 0.938293 5.60832
                CHANNELS 3 Zrotation Xrotation Yrotation
                JOINT lIndex2
                {
                  OFFSET 2.54057 -0.884171 1.56538
                  CHANNELS 3 Zrotation Xrotation Yrotation
                  End Site
                  {
                    OFFSET 1.62519 -0.234802 1.16502
                  }
                }
              }
              JOINT lMid1
              {
                OFFSET 8.24714 1.18213 3.41376
                CHANNELS 3 Zrotation Xrotation Yrotation
                JOINT lMid2
                {
                  OFFSET 3.10165 -0.590103 1.0647
                  CHANNELS 3 Zrotation Xrotation Yrotation
                  End Site
                  {
                    OFFSET 2.48547 -0.328903 0.83742
                  }
                }
              }
              JOINT lRing1
              {
                OFFSET 8.82822 0.546677 1.51678
                CHANNELS 3 Zrotation Xrotation Yrotation
                JOINT lRing2
                {
                  OFFSET 2.60934 -0.819778 -0.0198488
                  CHANNELS 3 Zrotation Xrotation Yrotation
                  End Site
                  {
                    OFFSET 2.33842 -0.294052 0.168128
                  }
                }
              }
              JOINT lPinky1
              {
                OFFSET 8.27202 -0.0477905 -0.4584
                CHANNELS 3 Zrotation Xrotation Yrotation
                JOINT lPinky2
                {
                  OFFSET 1.82734 -0.647385 -0.700984
                  CHANNELS 3 Zrotation Xrotation Yrotation
                  End Site
                  {
                    OFFSET 1.69225 -0.51767 -0.607171
                  }
                }
              }
            }
          }
        }
      }
    }
  }
  JOINT rButtock
  {
    OFFSET -8.77824 4.35084 1.2192
    CHANNELS 3 Zrotation Xrotation Yrotation
    JOINT rThigh
    {
      OFFSET 0 -1.70687 -2.19456
      CHANNELS 3 Zrotation Xrotation Yrotation
      JOINT rShin
      {
        OFFSET 0 -36.8199 0.73152
        CHANNELS 3 Zrotation Xrotation Yrotation
        JOINT rFoot
        {
          OFFSET 0.73152 -45.1104 -5.12064
          CHANNELS 3 Zrotation Xrotation Yrotation
          End Site
          {
            OFFSET -1.1221 -3.69964 12.103
          }
        }
      }
    }
  }
  JOINT lButtock
  {
    OFFSET 8.77824 4.35084 1.2192
    CHANNELS 3 Zrotation Xrotation Yrotation
    JOINT lThigh
    {
      OFFSET 0 -1.70687 -2.19456
      CHANNELS 3 Zrotation Xrotation Yrotation
      JOINT lShin
      {
        OFFSET 0 -36.8199 0.73152
        CHANNELS 3 Zrotation Xrotation Yrotation
        JOINT lFoot
        {
          OFFSET -0.73152 -45.1104 -5.12064
          CHANNELS 3 Zrotation Xrotation Yrotation
          End Site
          {
            OFFSET 1.1221 -3.69964 12.103
          }
        }
      }
    }
  }
}
MOTION
Frames:	4
Frame Time:	0.00833333
-0.439934 84.9173 -170.743 0.0 0.0 0.0 -0.140625 -0.000295017 -0.00400525 -0.0387669 -0.000394553 -0.00671563 1.95263e-15 -2.38542e-15 -3.41661e-17 5.79271e-15 -6.36111e-15 -9.47333e-17 -0.0 0.0 0.0 -0.0 0.0 0.0 9.9263e-16 0.0 1.98785e-16 2.30361e-14 4.96962e-17 5.96354e-16 3.47525e-13 -1.05753e-13 6.36111e-15 4.00299e-12 9.80257e-14 -8.5875e-14 9.43547e-12 -1.80816e-14 -1.49486e-13 1.62892e-11 -3.18055e-14 -2.75118e-13 9.44227e-12 -1.70955e-14 -1.52667e-13 7.73091 5.47488 0.417314 9.43517e-12 -1.799e-14 -1.52667e-13 2.90554 0.965183 0.102902 9.44195e-12 -1.76918e-14 -1.52667e-13 10.2786 0.731801 0.0259123 9.43034e-12 -1.66979e-14 -1.46306e-13 2.22167 -0.733487 -0.20892 9.95281e-16 3.88251e-19 -1.98785e-16 1.75278e-14 4.34841e-17 -9.93923e-16 3.49165e-13 1.06151e-13 -1.27222e-14 4.00079e-12 -9.92432e-14 -4.77083e-14 9.43691e-12 1.27072e-14 -1.55847e-13 1.63011e-11 1.59028e-14 -2.56035e-13 9.43313e-12 1.39149e-14 -1.43125e-13 -7.73091 5.47488 -0.417314 9.43636e-12 1.2921e-14 -1.55847e-13 -2.90554 0.965183 -0.102902 9.43006e-12 1.27222e-14 -1.52667e-13 -10.2786 0.731801 -0.0259123 9.44008e-12 1.27222e-14 -1.55847e-13 -2.22167 -0.733487 0.20892 -2.03217e-16 0.0 -3.88251e-19 0.41545 -2.89234 -0.0363694 -0.00657578 -0.313961 -0.0578453 -0.521683 3.20536 0.125418 2.03217e-16 0.0 3.88251e-19 -0.629354 -3.43714 0.0497312 0.0049779 0.672914 0.0432306 0.523146 2.76331 -0.116511
-0.54595 83.5773 -171.7 -2.0367 3.7327 1.9943 0.390992 0.0702162 -0.490762 1.02505 -1.04304 -0.118638 1.43256 -1.15689 0.506016 -2.83211 1.69942 0.652471 -0.0 0.0 0.0 -0.0 0.0 0.0 -7.63672e-15 -1.92573e-14 3.70275e-15 20.0565 2.96802 -1.91477 -4.1205 -1.85289 6.45666 0.00241842 -1.09102 -0.153233 2.36668e-10 -1.65412e-10 3.80855e-11 4.08842e-10 -2.85874e-10 6.58468e-11 2.36673e-10 -1.65412e-10 3.80845e-11 7.73091 5.47488 0.417314 2.36667e-10 -1.65412e-10 3.8086e-11 2.90554 0.965183 0.102902 2.36673e-10 -1.65412e-10 3.80841e-11 10.2786 0.731801 0.0259123 2.36663e-10 -1.6541e-10 3.80906e-11 2.22167 -0.733487 -0.20892 -7.6236e-15 -1.926e-14 3.35604e-15 -21.8023 5.29959 2.58883 4.95702 -2.42154 -7.54989 -0.00408661 -1.41833 0.199113 3.0581e-10 5.64097e-12 9.26995e-11 5.28188e-10 8.62347e-12 1.61797e-10 3.05805e-10 5.64075e-12 9.27122e-11 -7.73091 5.47488 -0.417314 3.05809e-10 5.63979e-12 9.26977e-11 -2.90554 0.965183 -0.102902 3.05802e-10 5.64066e-12 9.27021e-11 -10.2786 0.731801 -0.0259123 3.05813e-10 5.64243e-12 9.26969e-11 -2.22167 -0.733487 0.20892 -2.03217e-16 0.0 -3.88251e-19 0.858411 -5.49906 -0.64521 0.0071917 7.2409 0.0764965 -1.0116 0.108668 -5.60247 2.03217e-16 0.0 3.88251e-19 -0.0942098 -5.84215 -0.632574 -0.00506301 7.46454 -0.0644468 0.801537 0.0936234 3.92061
-0.571675 83.5762 -171.698 -2.1563 3.735 1.9935 0.952977 0.143314 -1.00507 2.14586 -2.14405 -0.237122 2.96948 -2.38251 1.0412 -5.86933 3.4986 1.34329 -0.0 0.0 0.0 -0.0 0.0 0.0 -1.62268e-14 -3.93933e-14 1.04207e-14 41.476 6.09631 -3.95458 -8.0264 -3.73385 13.3052 -0.00137776 -2.24642 -0.315695 4.70815e-10 -3.04559e-10 9.00552e-11 8.13261e-10 -5.26191e-10 1.55738e-10 4.70817e-10 -3.04558e-10 9.00566e-11 7.73091 5.47488 0.417314 4.70814e-10 -3.04558e-10 9.00598e-11 2.90554 0.965183 0.102902 4.70818e-10 -3.04558e-10 9.00558e-11 10.2786 0.731801 0.0259123 4.70809e-10 -3.04555e-10 9.00624e-11 2.22167 -0.733487 -0.20892 -1.62009e-14 -3.93997e-14 1.01256e-14 -45.3792 10.8664 5.39866 9.5099 -4.84145 -15.5744 0.00232089 -2.91458 0.409578 6.20619e-10 -1.74192e-11 2.10673e-10 1.07184e-09 -3.26341e-11 3.67438e-10 6.20613e-10 -1.7421e-11 2.10685e-10 -7.73091 5.47488 -0.417314 6.20617e-10 -1.74219e-11 2.10669e-10 -2.90554 0.965183 -0.102902 6.2061e-10 -1.74199e-11 2.10675e-10 -10.2786 0.731801 -0.0259123 6.20621e-10 -1.74162e-11 2.10667e-10 -2.22167 -0.733487 0.20892 -2.03217e-16 0.0 -3.88251e-19 1.26488 -8.25397 -1.2963 -0.0178898 15.2288 0.225202 -2.19905 -3.09967 -11.6753 2.03217e-16 0.0 3.88251e-19 0.408152 -8.38285 -1.35992 0.0128055 14.6438 -0.183095 1.5036 -2.70083 8.1952
-0.582906 83.5763 -171.696 -2.1841 3.6814 2.0048 1.45782 0.211177 -1.46428 3.14045 -3.12829 -0.342935 4.35906 -3.46957 1.52053 -8.61282 5.0956 1.96432 -0.0 0.0 0.0 -0.0 0.0 0.0 -2.48954e-14 -5.7772e-14 1.07107e-14 60.7696 8.86405 -5.80619 -11.1308 -5.27688 19.4455 -0.010276 -3.27298 -0.460366 6.91133e-10 -4.96201e-10 1.14556e-10 1.19395e-09 -8.57559e-10 1.98091e-10 6.91134e-10 -4.96201e-10 1.14559e-10 7.73091 5.47488 0.417314 6.91132e-10 -4.96199e-10 1.14563e-10 2.90554 0.965183 0.102902 6.91136e-10 -4.962e-10 1.14558e-10 10.2786 0.731801 0.0259123 6.91127e-10 -4.96196e-10 1.14564e-10 2.22167 -0.733487 -0.20892 -2.48614e-14 -5.77808e-14 1.04657e-14 -66.8864 15.7664 8.03756 13.0008 -6.76117 -22.7967 0.0173829 -4.25479 0.598806 8.98555e-10 1.68975e-11 2.7841e-10 1.55196e-09 2.58386e-11 4.85902e-10 8.98548e-10 1.68944e-11 2.78423e-10 -7.73091 5.47488 -0.417314 8.98553e-10 1.68935e-11 2.78405e-10 -2.90554 0.965183 -0.102902 8.98546e-10 1.68965e-11 2.78412e-10 -10.2786 0.731801 -0.0259123 8.98558e-10 1.69019e-11 2.78402e-10 -2.22167 -0.733487 0.20892 -2.03217e-16 0.0 -3.88251e-19 1.57544 -10.7079 -1.88694 -0.0781529 22.3502 0.371237 -3.82801 -5.81462 -17.1488 2.03217e-16 0.0 3.88251e-19 0.8015 -10.6468 -2.02197 0.0557628 21.0476 -0.298042 2.48176 -5.13029 12.0435
